# xmcd
#
# Track frame offsets:
#	182
#	19907
#	39332
#	61532
#	78182
#	96057
#	114332
#	132182
#	143657
#	159632
#	175907
#	193672
#	206582
#	218357
#	234557
#	249070
#	260957
#	306407
#	320057
#
# Disc length: 4561 seconds
#
# Revision: 0
# Processed by: cddbd v1.5.1PL0 Copyright (c) Steve Scherf et al.
# Submitted via: dBpowerAMP V4.0
#
DISCID=fd11cf13
DTITLE=Muddy Waters - Dejavu Retro Collection - Muddy Waters and Howlin Wolf
DYEAR=2001
DGENRE=Blues
TTITLE0=Muddy Waters - Long Distance Call
TTITLE1=Muddy Waters - Where's My Woman
TTITLE2=Muddy Waters - Honky Tonk
TTITLE3=Muddy Waters - Off The Wall
TTITLE4=Muddy Waters - Blow Wind Blow
TTITLE5=Muddy Waters - Howlin' Wolf
TTITLE6=Muddy Waters - Can't Get No Grindin'
TTITLE7=Muddy Waters - Trouble No More
TTITLE8=Muddy Waters - Soon Forgotten
TTITLE9=Muddy Waters - Corinne, Corinne
TTITLE10=Muddy Waters - Garbage Man
TTITLE11=Muddy Waters - I'm Your Hoochie Coochie Man
TTITLE12=Muddy Waters - Baby Please Don't Go
TTITLE13=Muddy Waters - Manish Boy
TTITLE14=Muddy Waters - Everything Gonna Be Alright
TTITLE15=Muddy Waters - Got My Mojo Working
TTITLE16=Muddy Waters - Nine Below Zero
TTITLE17=Muddy Waters - What's The Matter With The Mill?
TTITLE18=Muddy Waters - Honey Bee
EXTD=
EXTT0=
EXTT1=
EXTT2=
EXTT3=
EXTT4=
EXTT5=
EXTT6=
EXTT7=
EXTT8=
EXTT9=
EXTT10=
EXTT11=
EXTT12=
EXTT13=
EXTT14=
EXTT15=
EXTT16=
EXTT17=
EXTT18=
PLAYORDER=
